<svg width="25" height="24" viewBox="0 0 25 24" fill="none" xmlns="http://www.w3.org/2000/svg">
<path d="M12.9469 24C12.4612 24 12.0543 23.8354 11.7263 23.5063C11.3972 23.1783 11.2326 22.7714 11.2326 22.2857V13.7143H2.66119C2.17547 13.7143 1.76804 13.5497 1.4389 13.2206C1.1109 12.8926 0.946899 12.4857 0.946899 12C0.946899 11.5143 1.1109 11.1069 1.4389 10.7777C1.76804 10.4497 2.17547 10.2857 2.66119 10.2857H11.2326V1.71429C11.2326 1.22857 11.3972 0.821143 11.7263 0.492C12.0543 0.164 12.4612 0 12.9469 0C13.4326 0 13.84 0.164 14.1692 0.492C14.4972 0.821143 14.6612 1.22857 14.6612 1.71429V10.2857H23.2326C23.7183 10.2857 24.1252 10.4497 24.4532 10.7777C24.7823 11.1069 24.9469 11.5143 24.9469 12C24.9469 12.4857 24.7823 12.8926 24.4532 13.2206C24.1252 13.5497 23.7183 13.7143 23.2326 13.7143H14.6612V22.2857C14.6612 22.7714 14.4972 23.1783 14.1692 23.5063C13.84 23.8354 13.4326 24 12.9469 24Z" fill="black"/>
</svg>
