<svg width="24" height="25" viewBox="0 0 24 25" fill="none" xmlns="http://www.w3.org/2000/svg">
<path d="M22.8571 0.00333333C22.554 0.00333333 22.2633 0.123741 22.049 0.338068C21.8347 0.552396 21.7143 0.843086 21.7143 1.14619C20.8505 0.497069 19.8205 0.106133 18.7435 0.01873C17.6666 -0.0686733 16.587 0.151038 15.6298 0.652378C14.6727 1.15372 13.8774 1.91614 13.336 2.85121C12.7946 3.78627 12.5295 4.85566 12.5713 5.93532C12.6131 7.01498 12.9601 8.06067 13.5721 8.95109C14.1841 9.84151 15.0361 10.5402 16.0291 10.966C17.0221 11.3919 18.1155 11.5275 19.1824 11.3571C20.2494 11.1867 21.2462 10.7173 22.0571 10.0033C22.286 9.80328 22.426 9.52052 22.4464 9.21725C22.4667 8.91397 22.3658 8.61503 22.1657 8.38619C21.9657 8.15735 21.6829 8.01734 21.3796 7.99698C21.0764 7.97662 20.7774 8.07757 20.5486 8.27762C20.0409 8.72569 19.412 9.01344 18.7411 9.10456C18.0701 9.19568 17.3873 9.08611 16.7785 8.78965C16.1698 8.49319 15.6624 8.02313 15.3205 7.43873C14.9785 6.85434 14.8172 6.18177 14.857 5.50585C14.8968 4.82992 15.1358 4.1809 15.5439 3.64063C15.952 3.10035 16.511 2.69301 17.1503 2.46997C17.7896 2.24693 18.4806 2.21817 19.1362 2.38733C19.7918 2.55648 20.3827 2.91597 20.8343 3.42048H19.4286C19.1255 3.42048 18.8348 3.54088 18.6204 3.75521C18.4061 3.96954 18.2857 4.26023 18.2857 4.56333C18.2857 4.86644 18.4061 5.15713 18.6204 5.37146C18.8348 5.58578 19.1255 5.70619 19.4286 5.70619H22.8571C23.1602 5.70619 23.4509 5.58578 23.6653 5.37146C23.8796 5.15713 24 4.86644 24 4.56333V1.13476C23.997 0.833642 23.8753 0.545879 23.6613 0.334018C23.4472 0.122156 23.1583 0.00331827 22.8571 0.00333333ZM19.4286 13.7176C19.1255 13.7176 18.8348 13.838 18.6204 14.0524C18.4061 14.2667 18.2857 14.5574 18.2857 14.8605V15.3062L16.5714 13.6148C16.2772 13.3186 15.9273 13.0836 15.5419 12.9232C15.1565 12.7629 14.7432 12.6803 14.3257 12.6803C13.9083 12.6803 13.4949 12.7629 13.1095 12.9232C12.7241 13.0836 12.3742 13.3186 12.08 13.6148L11.28 14.4148L8.46857 11.569C7.87134 10.9765 7.06414 10.644 6.22286 10.644C5.38157 10.644 4.57437 10.9765 3.97714 11.569L2.28571 13.2605V6.86048C2.28571 6.55737 2.40612 6.26668 2.62045 6.05235C2.83478 5.83803 3.12547 5.71762 3.42857 5.71762H9.14286C9.44596 5.71762 9.73665 5.59721 9.95098 5.38288C10.1653 5.16856 10.2857 4.87787 10.2857 4.57476C10.2857 4.27166 10.1653 3.98097 9.95098 3.76664C9.73665 3.55231 9.44596 3.4319 9.14286 3.4319H3.42857C2.51926 3.4319 1.64719 3.79313 1.00421 4.43611C0.361224 5.07909 0 5.95116 0 6.86048V20.5748C0 21.4841 0.361224 22.3561 1.00421 22.9991C1.64719 23.6421 2.51926 24.0033 3.42857 24.0033H17.1429C18.0522 24.0033 18.9242 23.6421 19.5672 22.9991C20.2102 22.3561 20.5714 21.4841 20.5714 20.5748V14.8605C20.5714 14.5574 20.451 14.2667 20.2367 14.0524C20.0224 13.838 19.7317 13.7176 19.4286 13.7176ZM3.42857 21.7176C3.12547 21.7176 2.83478 21.5972 2.62045 21.3829C2.40612 21.1686 2.28571 20.8779 2.28571 20.5748V16.4948L5.6 13.1462C5.7679 12.9862 5.99093 12.8969 6.22286 12.8969C6.45478 12.8969 6.67782 12.9862 6.84571 13.1462L10.4686 16.769L15.4286 21.7176H3.42857ZM18.2857 20.5748C18.2762 20.7921 18.2048 21.0023 18.08 21.1805L12.9257 16.0262L13.7257 15.2262C13.8927 15.0601 14.1187 14.9669 14.3543 14.9669C14.5898 14.9669 14.8158 15.0601 14.9829 15.2262L18.2857 18.5405V20.5748Z" fill="black"/>
</svg>
