<svg width="25" height="24" viewBox="0 0 25 24" fill="none" xmlns="http://www.w3.org/2000/svg">
<path d="M21.2398 9.6C20.9216 9.6 20.6164 9.72643 20.3913 9.95147C20.1663 10.1765 20.0398 10.4817 20.0398 10.8V14.856L18.2638 13.08C17.6368 12.4579 16.7892 12.1088 15.9058 12.1088C15.0225 12.1088 14.1749 12.4579 13.5478 13.08L12.7078 13.932L9.73184 10.944C9.10475 10.3219 8.2572 9.97275 7.37384 9.97275C6.49049 9.97275 5.64294 10.3219 5.01584 10.944L3.23984 12.732V6C3.23984 5.68174 3.36627 5.37652 3.59132 5.15147C3.81636 4.92643 4.12158 4.8 4.43984 4.8H14.0398C14.3581 4.8 14.6633 4.67357 14.8884 4.44853C15.1134 4.22348 15.2398 3.91826 15.2398 3.6C15.2398 3.28174 15.1134 2.97652 14.8884 2.75147C14.6633 2.52643 14.3581 2.4 14.0398 2.4H4.43984C3.48506 2.4 2.56939 2.77928 1.89426 3.45442C1.21913 4.12955 0.839844 5.04522 0.839844 6V20.664C0.843006 21.5478 1.19549 22.3945 1.82043 23.0194C2.44537 23.6444 3.29206 23.9968 4.17584 24H19.1038C19.429 23.9974 19.7522 23.9489 20.0638 23.856C20.7568 23.6616 21.3668 23.2453 21.8003 22.6709C22.2339 22.0965 22.4669 21.3957 22.4638 20.676V10.8C22.4639 10.6404 22.4321 10.4823 22.3703 10.3352C22.3085 10.188 22.2179 10.0546 22.1039 9.94287C21.9899 9.83112 21.8548 9.74324 21.7064 9.68436C21.5581 9.62549 21.3994 9.59681 21.2398 9.6ZM4.43984 21.6C4.12158 21.6 3.81636 21.4736 3.59132 21.2485C3.36627 21.0235 3.23984 20.7183 3.23984 20.4V16.116L6.70784 12.648C6.88323 12.4736 7.12051 12.3757 7.36784 12.3757C7.61518 12.3757 7.85246 12.4736 8.02784 12.648L16.9918 21.6H4.43984ZM20.0398 20.4C20.0321 20.6324 19.9571 20.8575 19.8238 21.048L14.3998 15.6L15.2518 14.76C15.3379 14.6722 15.4406 14.6024 15.5539 14.5548C15.6672 14.5072 15.7889 14.4827 15.9118 14.4827C16.0348 14.4827 16.1565 14.5072 16.2698 14.5548C16.3831 14.6024 16.4858 14.6722 16.5718 14.76L20.0398 18.252V20.4ZM23.6398 2.4H22.4398V1.2C22.4398 0.88174 22.3134 0.576515 22.0884 0.351472C21.8633 0.126428 21.5581 0 21.2398 0C20.9216 0 20.6164 0.126428 20.3913 0.351472C20.1663 0.576515 20.0398 0.88174 20.0398 1.2V2.4H18.8398C18.5216 2.4 18.2164 2.52643 17.9913 2.75147C17.7663 2.97652 17.6398 3.28174 17.6398 3.6C17.6398 3.91826 17.7663 4.22348 17.9913 4.44853C18.2164 4.67357 18.5216 4.8 18.8398 4.8H20.0398V6C20.0398 6.31826 20.1663 6.62348 20.3913 6.84853C20.6164 7.07357 20.9216 7.2 21.2398 7.2C21.5581 7.2 21.8633 7.07357 22.0884 6.84853C22.3134 6.62348 22.4398 6.31826 22.4398 6V4.8H23.6398C23.9581 4.8 24.2633 4.67357 24.4884 4.44853C24.7134 4.22348 24.8398 3.91826 24.8398 3.6C24.8398 3.28174 24.7134 2.97652 24.4884 2.75147C24.2633 2.52643 23.9581 2.4 23.6398 2.4V2.4Z" fill="black"/>
</svg>
