<svg width="25" height="21" viewBox="0 0 25 21" fill="none" xmlns="http://www.w3.org/2000/svg">
<path d="M21.3647 0.966797H4.56472C3.60994 0.966797 2.69427 1.34608 2.01914 2.02121C1.34401 2.69634 0.964722 3.61202 0.964722 4.5668V16.5668C0.964722 17.5216 1.34401 18.4373 2.01914 19.1124C2.69427 19.7875 3.60994 20.1668 4.56472 20.1668H21.3647C22.3195 20.1668 23.2352 19.7875 23.9103 19.1124C24.5854 18.4373 24.9647 17.5216 24.9647 16.5668V4.5668C24.9647 3.61202 24.5854 2.69634 23.9103 2.02121C23.2352 1.34608 22.3195 0.966797 21.3647 0.966797V0.966797ZM4.56472 17.7668C4.24646 17.7668 3.94124 17.6404 3.71619 17.4153C3.49115 17.1903 3.36472 16.8851 3.36472 16.5668V13.6628L7.32472 9.7148C7.54904 9.49492 7.85062 9.37177 8.16472 9.37177C8.47883 9.37177 8.78041 9.49492 9.00472 9.7148L17.0567 17.7668H4.56472ZM22.5647 16.5668C22.5647 16.8851 22.4383 17.1903 22.2133 17.4153C21.9882 17.6404 21.683 17.7668 21.3647 17.7668H20.4407L15.8687 13.1708L16.9247 12.1148C17.149 11.8949 17.4506 11.7718 17.7647 11.7718C18.0788 11.7718 18.3804 11.8949 18.6047 12.1148L22.5647 16.0628V16.5668ZM22.5647 12.6788L20.3087 10.4348C19.6248 9.77772 18.7131 9.41075 17.7647 9.41075C16.8163 9.41075 15.9047 9.77772 15.2207 10.4348L14.1647 11.4908L10.7087 8.0348C10.0248 7.37772 9.11315 7.01075 8.16472 7.01075C7.21629 7.01075 6.30465 7.37772 5.62072 8.0348L3.36472 10.2788V4.5668C3.36472 4.24854 3.49115 3.94331 3.71619 3.71827C3.94124 3.49323 4.24646 3.3668 4.56472 3.3668H21.3647C21.683 3.3668 21.9882 3.49323 22.2133 3.71827C22.4383 3.94331 22.5647 4.24854 22.5647 4.5668V12.6788Z" fill="black"/>
</svg>
